<?xml version="1.0" encoding="UTF-8"?>
<!DOCTYPE svg  PUBLIC '-//W3C//DTD SVG 20010904//EN'  'http://www.w3.org/TR/2001/REC-SVG-20010904/DTD/svg10.dtd'>
<svg viewBox="0 0 2172 792" xmlns="http://www.w3.org/2000/svg">
<path d="m968 31v68 233c8.49-4.37 23.12-16.3 31-22.6 20.19-16.15 40.26-34.74 55.87-55.4 8.73-11.56 19-26.9 18.38-42-0.37-9.19-1.77-10.91-5.25-19h74c-2.88 6.08-20.21 22.79-25.83 29 0 0-42.08 45-42.08 45s-23.09 25-23.09 25l-22 21.72c-2.06 1.81-9.09 7.26-9.84 9.45-1.18 3.45 6.06 11.07 8.19 13.83 0 0 27.94 37 27.94 37s52.99 74 52.99 74c12.19 17.41 34.59 50.28 47.89 65l18.83 18h-68c-2.44 0-5.66 0.21-7.82-1.02-2.7-1.54-6.68-8.17-8.49-10.98 0 0-16.36-25-16.36-25l-75.66-114c-4.57-6.86-13.51-21.87-18.76-26.82-8.14-7.67-11.89-5.67-11.91 4.82v89l1 15v15c0.06 11.6 2.8 34.83 7.99 45 0 0 6.01 9 6.01 9h-83c2.27-3.44 4.44-6.17 6.12-10 4.93-11.18 7.86-37.51 7.88-50l1-18v-58-59l-1-17v-95l1-15v-108l-1-15v-4c-0.08-16.57-4.12-44.67-12.34-59-3.23-5.65-5.68-7.38-9.66-12 0 0 36-4.87 36-4.87s39-6.13 39-6.13l1 31zm587-27v328 147c0.02 11.32 2.59 28.2 6.03 39l5.97 15h-81c4.4-10.22 5.58-10.16 8.53-22 4.4-17.69 4.47-37.83 4.47-56v-61-243-64c0-17.92-0.04-38.38-7.44-55-3.32-7.46-7.11-9.77-11.56-16l75-12zm-1520 47l12-0.96h12l22-1.04 14-1 40-2 11-0.96h12l15-1.04h48c29.49 0.05 64.79 12.74 83.48 36 25.42 31.02 21.95 82.36 0 114-14.4 20.29-33.96 34.05-55.48 45.69 0 0-19 9.45-19 9.45-5.06 2.25-10.14 3.76-14 7.86 7.99 1.13 22.95 5.5 31 7.98 29.51 9.07 59.91 22.78 79.1 48.02 18.78 24.69 21.24 50.23 20.9 80l-2.59 23c-5.97 35.55-21.99 64.2-51.41 85.71-29.27 21.41-71.32 30.88-107 33.38l-10 0.91h-73l-17-1h-19l-16-1h-35l-15-1 7.98-22c4.15-13.34 7.45-28.19 9.6-42 2.67-17.19 5.39-41.79 5.42-59l1-17v-49-127-72c0-23.34 0.12-46.22-5.88-69-3.36-12.72-5.44-14.14-10.12-25h26zm91 202l12-0.91c26.41-1.93 54.43-8.52 76-24.57 21.13-15.72 33.96-41.13 34-67.52v-19c-0.23-19.63-9.01-39.41-25-51.07-14.3-10.43-41.42-15.84-59-15.93l-25-1-15 1-31 2v177h33zm514.3 230c-4.07 11.5-13.9 22.66-23.3 30.19-18.63 14.93-41.67 24.75-65 29.41-6.01 1.2-24.43 3.62-30 3.31-23.9-1.36-47.14-5.95-68-18.36-41.18-24.5-62.52-68.07-71.6-113.55-1.98-9.9-4.38-27.09-4.4-37v-24c0.05-33.85 12.96-77.08 32.03-105 12.43-18.2 27-32.26 45.97-43.55 45.92-27.32 115.7-28.34 159 4.79 24.02 18.37 36.35 44.84 36 74.76-0.09 7.73-2.34 16.12-8.18 21.53-10.89 10.09-31.84 9.45-45.82 9.47l-17 1h-127c-2.53 0.01-6.36-0.34-8.26 1.6-1.96 2-1.64 5.78-1.91 8.4l-1.83 22v20c0.01 6.67 0.95 13.4 1.87 20 4.93 35.48 20 71.97 51.13 92.14 6.83 4.42 14.25 8.03 22 10.52 15.43 4.94 25.11 5.41 41 5.34 17.88-0.08 44.41-7.18 60-15.86 4.23-2.36 11.2-6.74 15-9.64l11-8.5c0 8.33 0.18 12.87-2.7 21zm61.7-288l40-2.99c2.56-0.06 6.66-0.24 8.89 1.01 6.57 3.67 5.66 16.52 6.28 22.98 0.28 2.92 0.85 10.76 4.05 11.8 2.76 0.9 5.51-3.03 7.05-4.8 6.32-7.28 11.15-13.15 18.73-19.39 16.75-13.78 35.17-21.37 57-18.76 8.38 1 16.12 2.31 23 7.68 13.97 10.89 13.62 35.98-4 43.23-10.8 4.06-29.19 0.3-41 0l-14-0.72c-15.08-0.66-30.33 2.79-39.25 15.96-5.87 8.67-7.1 18.85-7.84 29l-0.91 48v108 30l1 12v9c1.3 17.68 5.07 29.89 12 46h-81c3.26-7.58 6.07-13.89 8.11-22 6-23.91 4.89-61.67 4.89-87v-136l-1-15v-10l-0.91-10c-1.04-14.82-2.71-30.17-8.55-44l-7.54-13c7.19-1.29 7.94-0.97 15-1zm735.91 288c-8.01 22.35-30.58 37.24-50.91 47.24-59.77 29.4-135.43 16.97-174.96-39.24-10.64-15.12-18.86-31.46-24.71-49-6.82-20.47-11.08-42.42-11.33-64l-0.99-13 0.99-17 2.92-25c7.3-44.12 29.05-88.28 67.08-113.65 11.06-7.37 23.4-13.18 36-17.35 12.81-4.23 25.61-6.15 39-7.09l10-0.91h4l10 0.91c35.11 2.57 70.04 17.43 89.56 48.09 9.29 14.59 14.63 31.64 14.44 49-0.1 8.81-2.23 17.72-9.04 23.79-8 7.14-23.52 9.19-33.96 9.21h-14l-15 1h-136s-2.14 27-2.14 27v15 10c0.18 22.58 6.03 47.5 15.45 68 4.7 10.24 11.85 20.94 19.7 29 6.88 7.05 11.47 11.41 19.99 16.55 32.3 19.48 76.02 18.17 110 3.58 8.83-3.79 19.6-9.53 27-15.59l10-8.54c0 7.43-0.56 14.94-3.09 22zm426.39 0c-7.87 22.22-32.67 38.99-53.3 48.3-61.81 27.9-133.99 15.59-173.98-42.3-11.61-16.81-18.96-32.51-25-52-9.06-29.27-10.37-54.74-10.02-85 0.12-9.89 2.43-25.16 4.4-35 10.98-54.87 42.66-104.65 97.6-123.66 15.06-5.2 28.22-7.34 44-8.43l10-0.91 13 0.91c35.35 2.47 70.1 17.36 89.91 48.09 10.57 16.39 14.31 31.72 14.09 51-0.09 7.72-2.39 16.22-8.18 21.67-7.68 7.23-24.56 9.31-34.82 9.37h-16l-12 0.96h-136s-2.09 29-2.09 29l-0.91 10c-0.52 45.12 11.07 93.9 49 122.34 7.9 5.92 17.58 10.71 27 13.64 14.64 4.53 24.91 5.09 40 5.02 17.88-0.08 44.41-7.18 60-15.86 4.23-2.36 11.2-6.74 15-9.64l11-8.5c0 8.33 0.18 12.87-2.7 21zm39.7-288.83l18-1.26 10-0.91c5.08-0.06 11.5-0.53 15.99 2.09 5.19 3.03 7.39 8.52 9.32 13.91l8.83 29 43.14 147 15.58 53c1.38 4.81 3.85 16.9 8.25 19.26 5.79 3.11 9.24-8.5 10.55-12.26 0 0 15.92-49 15.92-49l39.29-126c3.9-15.51 8.21-30.89 8.13-47-0.06-11.81-3.15-15.93-8-26h72c-1.82 6.39-7.51 15.51-10.75 22l-15.05 34-58 148-48.39 124c-23.92 61.74-53.39 128.51-100.85 175.96-16.74 16.74-38.73 32.55-60.96 40.98-36.44 13.82-78.45 10.56-114-4.66-23.31-9.98-48.19-26.82-55.96-52.28-2.28-7.46-2.04-11.45-2.04-19l21 11.69 23 10.88c20.98 8.95 53.21 18.39 76 18.43h22c10.52-0.13 27.91-3.98 38-7.33 13.7-4.55 22.86-8.77 35-16.75 41.73-27.41 64.19-74.23 68.96-122.92v-8l1.04-10v-4l-1.04-10v-9c-2.8-28.05-8.31-45.58-16.24-72l-13-44c-16.32-54.39-32.58-115.34-55.58-167l-12.57-25-8.57-14 21-1.83zm-1356 98.83c16.4-0.03 32.39-2.99 35.13-22 0.41-2.89 0.9-5.04 0.69-8-1.09-15.31-6.02-29.71-17.11-40.71-14.17-14.06-27.97-15.51-46.71-15.29-9.49 0.11-20.05 3.56-28 8.7-27.83 17.97-35.41 47.68-44 77.3h100zm782 0c11.87 0 30.66 0.99 41-5.22 10.15-6.1 10.12-16.37 10-26.78-0.28-23.26-15.98-44.38-38-51.64-8.76-2.89-15.96-2.46-25-2.36-9.11 0.11-18.05 2.95-26 7.31-25.94 14.25-40.42 50.93-46 78.69h84zm442 0c8.05-0.01 20.57-1.27 26.98-6.39 15.47-12.36 7.88-42.69-1.75-56.61-9.45-13.65-25.51-22.8-42.23-23h-11c-8.58 0.1-18.63 3.08-26 7.45-12.02 7.13-19.46 15.71-26.6 27.55-10.85 17.99-13.74 31.49-19.4 51h100zm-1679 152l0.91 10c0.84 12.3 1.23 27.57 8.72 38 10.14 14.1 30.59 14.18 46.37 14l10-0.91c29.06-1.99 58.87-7.43 81-28.18 24.47-22.95 29.05-56.15 29-87.91-0.02-11.62-2.68-29.98-6.35-41-4.02-12.04-10.25-23.59-18.82-33-13.57-14.9-33.62-23.59-52.83-28.37-32.36-8.06-64.93-7.63-98-7.63v165z" fill="#cd1a30"/>
<path d="m290 626v15h-13v-15h13zm459 1.61c8.18-2.92 14.03-0.98 22-0.61v11c-3.88-0.31-9.32-1.57-13-0.57-10.36 2.83-9 18.15-9 26.57h21v11h-21v82h-12v-82h-16v-11h16c0-11.91-2.02-31.38 12-36.39zm290-1.61v15h-12v-15h12zm46 2.22c2.23-0.97 6.54-1.81 9-2.05 4.72-0.47 9.31 0.61 14 0.83v11l-7-0.91c-16.94-0.95-14 15.39-14 26.91h20v11h-20v82h-12v-82h-16v-11h16c0-11.28-2.61-30.28 10-35.78zm-1060-0.22c18.06 0 31.55-0.16 47 11.16 13.38 9.81 20.92 29.56 21 45.84v15c-0.09 18.59-9.07 38.43-25 48.56-14.86 9.44-26.41 8.44-43 8.44h-25v-129h25zm629 0v81l1 48h-12l-1-8c-6.83 4.79-10.06 8.38-19 9.62-3.29 0.57-9.73 0.51-13 0-21.4-3.95-30.9-23.55-31-43.62v-8c0.1-20.62 11.8-43.72 35-44 13.59-0.16 16.97 3.1 28 10v-45h12zm340 0v129h-13v-129h13zm-980 93v18c0.04 1.95-0.1 4.63 1.6 5.98 1.59 1.25 5.41 1.02 7.4 1.02h10c11.95-0.14 25.26-3.25 33.83-12.09 10.18-10.5 12.29-25.96 13.08-39.91 0.21-3.83-0.39-5.47-0.74-9-1.27-12.63-2.82-22.95-11.63-32.91-13.46-15.21-35.35-12.09-53.54-12.09v81zm313-53.52c7.92-4.78 22.08-5.72 31-3.81l12 3.71c4.03-0.02 9.5-5.43 20-6.38v12s-14 2-14 2c2.54 5.44 5.16 9.86 5.83 16 1.87 17.29-8.49 32.38-25.83 35.76-6.85 1.24-10.19 0.87-17 0-4.03-0.4-7.25-2.09-10.89 0.71-5.44 4.17-4.43 10.33 1.89 12.79 2.86 1.11 10.58 0.7 14 0.74 10.91 0.13 31.81 2.61 39.9 10.21 9.1 8.56 8 24.52-1.94 32-10.55 7.94-25.25 8.94-37.96 8.79-8.32-0.1-22.42-2.14-28.98-7.39-7-5.6-9.79-16.91-4.37-24.6 3.12-4.42 7.54-6.86 12.35-9.01-3.51-2.17-7.33-4.38-9.43-8.09-5-8.85 2.27-17.71 10.43-20.91v-2c-15.93-8.99-17.73-40.02 3-52.52zm-153.04 80.51c-13.58 13.9-37.54 14.84-52.96 3.25-11.22-8.43-15.84-24.71-16-38.24-0.16-13.8 2.5-29.48 12.18-39.96 12.78-13.83 40.36-14.11 52.29 0.97 9.51 12.03 8.53 24.75 8.53 38.99h-59.77c-0.23 3.09-0.32 5.94 0 9 2.71 13.71 13.79 27.15 28.77 26.24 4.58-0.28 9.11-1.62 13-4.05 5.27-3.3 7.48-6.25 11-11.19l10 4c-1.58 4.97-3.4 7.26-7.04 10.99zm52.04 0.26c9.58-0.47 22.06-8.21 17.85-19.25-2.82-7.4-11.91-10.43-18.85-12.66-11.47-3.68-28.41-6.54-33.03-19.34-1.16-3.19-1.01-6.65-0.97-10 0.38-31.99 48.86-30.01 62-8l-9 7c-6.79-6.73-14.74-13.45-25-12.79-10.7 0.69-18.74 10.06-14.82 17.78 3.48 6.85 13.11 9.2 19.82 11.35 11.74 3.77 27.36 7.62 31.89 20.66 1.23 3.53 1.19 7.31 1.1 11-0.87 33.98-57.92 30.4-68.99 7l10-7c7.06 9.3 16.06 14.84 28 14.25zm211-84.15c3.97-1.32 7.87-1.15 12-1.1 10.36 0.13 18.74 4.85 22.24 15 1.52 4.39 1.74 7.43 1.76 12v67h-12v-61c-0.02-11.04-2.74-24.08-17-22.66-7.39 0.73-21.63 8.14-24.98 14.67-1.21 2.37-1.01 5.39-1.02 7.99v61h-12v-93h12v13c5.69-5.57 11.31-10.32 19-12.9zm73 88.46c-13.46-9.38-18.99-28.73-17.91-44.56 0.83-12.28 3.58-25.59 12.21-34.91 13.07-14.1 39.93-13.98 52.37 0.91 8.38 10.03 9.33 26.41 9.33 39h-61c0.02 7.22 1.18 14.77 5.13 21 8.87 13.97 24.94 19.31 38.87 9.07 4.25-3.13 6.21-5.68 9-10.07l10 4c-7.33 22.99-39.86 28.2-58 15.56zm325-85.36c13.82 8.06 18.02 22.9 19.09 37.8 1.38 19.38-3.31 44.28-24.09 51.91-5.49 2.01-9.27 2.15-15 2.09-42.85-0.49-45.11-66.92-22.83-87.68 4.48-4.17 9.95-6.47 15.83-7.85 8.97-1.26 19-0.94 27 3.73zm78-4.2c0 2.49 0.46 9.46-0.99 11.26-1.83 2.28-5.86 1.23-12.01 4.95-6.93 4.2-10.87 10.67-14.22 17.79-4.96 10.55-3.78 15.83-3.78 27v33h-12v-93h12l1 19c6.58-13.49 14.86-19.86 30-20zm223 90.65c-13.41-7.97-18.04-22.03-19.09-36.65 0 0-0.54-7-0.54-7 0.66-13.06 2.91-26.82 12.09-36.83 13.75-14.97 41.93-13.87 53.91 2.83 7.4 10.33 7.63 24.8 7.63 37h-61c0.18 19.69 13.91 40.63 36 34.21 3.15-0.91 6.41-2.73 9-4.74 3.76-2.93 5.63-5.42 8-9.47l10 4c-5.6 22.68-38.31 27.16-56 16.65zm-846-89.65v93h-13v-93h13zm749 0v93h-12v-93h12zm-877.22 20c-7.81-13.14-25.17-14.4-35.68-3.9-5.77 5.78-7.74 13.99-8.1 21.9h48c-0.13-5.9-1.17-12.86-4.22-18zm168.4-5.47c-8.48 7.39-8.74 23.27-0.97 31.29 5.51 5.67 15.1 8.01 22.79 6.88 12.34-1.82 18-9.69 18-21.7 0-5.1-0.34-8.7-3.5-13-5.58-7.6-14.55-9.56-23.5-8.7-4.69 0.88-9.12 2.01-12.82 5.23zm216.14 1.65c-8.85-10.07-25.43-8.97-33.99 0.86-4.93 5.66-6.73 13.66-7.33 20.96h48c-0.07-7.84-1.31-15.71-6.68-21.82zm55.72-1.79c-11.87 9.76-12.53 34.74-9.14 48.61 3.34 13.67 13.54 23 28.1 21.21 6.8-0.84 17.9-6.5 20.4-13.21 0.71-1.92 0.6-4.93 0.6-7v-34c-0.01-2.6 0.19-5.62-1.02-7.99-3.93-7.66-17.64-13.33-25.98-12.72-5.03 0.84-8.89 1.75-12.96 5.1zm190.17 46.61c2.68 12.61 8.83 22.42 22.79 23.48 11.98 0.92 20.32-6.7 24.13-17.48 7.04-19.85 3.85-59.95-25.13-57.7-23.33 4.39-25.88 32.46-21.79 51.7zm378.26-44.91c-7.58-9.01-22.68-8.84-31.38-1.56-7.41 6.2-8.48 14.65-10.09 23.47h48c-0.02-7.91-1.24-15.62-6.53-21.91zm-845.37 78.7c-5.68 4.49-7.5 13.84-1.04 18.51 6.19 4.48 21.32 3.71 28.94 3.7 6.27-0.01 14.76-0.88 19.98-4.65 5.16-3.72 7.06-10.98 2.59-16.02-5.42-6.11-15.2-5.79-22.57-6.5-4.33-0.41-4.22-0.88-9-0.54-6.89 0.98-13.11 0.93-18.9 5.5z" fill="#58595b"/>
</svg>