<?xml version="1.0" encoding="UTF-8"?>
<!DOCTYPE svg  PUBLIC '-//W3C//DTD SVG 20010904//EN'  'http://www.w3.org/TR/2001/REC-SVG-20010904/DTD/svg10.dtd'>
<svg width="1.7639in" height="1.2639in" viewBox="0 0 127 91" xmlns="http://www.w3.org/2000/svg">
<path d="m62 23l1 5h-4l1-5h2zm-19.05 10.56c1.1 1.4 0.6 3.33 1.66 5.61 2.11 4.54 7.45 9.19 11.97 4.57 1.03-1.05 1.73-2.4 2.28-3.74l2.14-7c1.85 5.54 4.27 17.65 12.82 10.6l5.18-5.6 1 19h-38l0.84-14.99-2.84-10.01c1.22 0.43 2.01 0.37 2.95 1.56zm38.05-1.56l1 5h-4l1-5h2zm-1 28v8h-38v-8h38z"/>
</svg>
