<?xml version="1.0" encoding="UTF-8"?>
<!DOCTYPE svg  PUBLIC '-//W3C//DTD SVG 20010904//EN'  'http://www.w3.org/TR/2001/REC-SVG-20010904/DTD/svg10.dtd'>
<svg width="2.7778in" height="2.5694in" viewBox="0 0 200 185" xmlns="http://www.w3.org/2000/svg">
<path d="m101 5.21c9.52-0.2 17.12 1.42 26 4.74 48.26 18.03 68.1 71.67 48.13 118.05-13.9 32.26-47.75 51.4-82.13 51-10.11-0.12-20.56-2.69-30-6.23-7.17-2.69-13.93-7.16-19.91-11.89-31.97-25.27-41.42-72.61-23.28-108.88 12.81-25.63 36.13-41.96 64.19-46.79h17zm61 123.04c2.81-1.4 7.1-3 8.92-5.52 4.04-5.62 6.07-21.66 6.08-28.73 0.04-22.75-6.34-43.08-22.58-59.71-31.02-31.78-82.67-32.05-114.37-1.12-7.91 7.72-14.9 19.48-18.73 29.83-3.08 8.32-5.21 18.1-5.32 27-0.37 31.97 15.3 60.14 44 74.97 31.02 16.03 69.73 8.63 93.99-15.97 5.64-5.73 12.21-14.43 15.01-22-8.61 2.33-16.69 7.94-22.96 8.53-7.49 0.72-13.51-4.74-27.03-4.52-12.79 0.21-17.42 4.43-27.44 4.29-10.62-0.15-14.58-4.06-23.57-4.29-19.49-0.49-22.74 9.03-37 2.99l8 0.74c4.77-0.12 16.73-3.5 21-5.74-8.38-7-8.88-16.21-2.7-25 7.53-10.7 23.4-23.25 28.7-35l4.13 2.02-0.36-3.4-1.77-14.62 2 8 4-15-1-1-24 12 4.24-11.72 2.76-8.28c-0.44-9.34 10.59-15.5 19-13.61 4.17 0.94 7.94 4.18 10.35 7.61 7.77 11.09-1.33 25.81-4.35 37l9-4-16 9s3 1 3 1l-13 21c8.13-4.76 17.35-8.41 27-7.8 0 0 26.19 5.51 26.19 5.51 10.12 0.57 19.03-3.79 25.81-2.71l-4 8 7-2c-1.5 8.26-8.17 17.91-14.59 23.2l-6.78 4.36-6.63 9.44c10.99 1.97 14.2 0.11 24-4.75zm-62.04-101.25c-9.27-5.96-23.02-1.4-21.96 11l9-8c-1.45 7.71-2.33 7.28 0 15 4.86-1.82 5.39-3.72 8-8-0.3 17.32 0.04 9.91-3 26l1 1 6-6 1 1c-2.61 3.15-2.87 4-2 8 6.18-6.47 15.09-31.55 1.96-40zm61.04 36h7c-3.69 7.97-4.34 3.68-3 13-6.05-3.13-5.95-3.13-12 0 1.38-9.25 0.77-4.75-3-13h7s1.82-5.45 1.82-5.45l2.18 5.45zm-70 0l1 1v-1h-1zm-47 6h7c-3.69 7.97-4.34 3.68-3 13-6.03-3.12-5.97-3.12-12 0 1.38-9.25 0.77-4.75-3-13h7l2.09-5.82 1.91 5.82zm28.91 19c-7.36 7.9-18.73 17.07-17.72 29 1.12 13.26 8.32 11.14 17.81 13.14 8.46 1.79 11.6 4.26 21 3.82l23-4.46c7.86-0.63 15.04 2.99 18.91 1.67 4.39-1.49 6.13-7.14 7.09-11.17 9.65 0.74 18.81-12.28 20-21l-7 1.68-9 1.32c2.49-3.72 5.85-3.37 10-3 0 0 3-8 3-8-8.51 1.2-12.35 3.28-22 2.96-8.95-0.29-13.9-3.09-22-4.67-15.09-2.95-39.14 3.38-36.77 22.71-4.84-4.68-3.09-9.01 0-14 4.62-6.56 13.94-15.69 15.77-23l-8-4-14.09 17zm14.1 25.99c3.8 9.25 16.47 10 24.99 10.01l-4-7c10.64 4.41 14.14 8.04 26 2l-8-4c14.55 2.01 14.73 2.61 26-8-2.3 9.19-7.07 8.51-14 11.94-4.18 2.07-4.55 3.54-10 4.77-4.95 0.78-8.05-0.24-10.74 0-9.2 1.57-7.17 3.33-18.26 1.2-11-2.13-17.89-9.89-13-20.91 0.72 3.38-0.37 6.64 1.01 9.99zm15.99 37.01h7c-3.69 7.97-4.34 3.68-3 13-6.03-3.12-5.97-3.12-12 0 1.38-9.25 0.77-4.75-3-13h7l2-5.91 2 5.91zm-8.64-79.31" fill="none" stroke="#000"/>
</svg>
