<?xml version="1.0" encoding="UTF-8"?>
<!DOCTYPE svg  PUBLIC '-//W3C//DTD SVG 20010904//EN'  'http://www.w3.org/TR/2001/REC-SVG-20010904/DTD/svg10.dtd'>
<svg width="20.833in" height="2.6528in" viewBox="0 0 1500 191" xmlns="http://www.w3.org/2000/svg">
<path d="m88 49l-0.98-16v-18c-0.05-2.37-1.11-8.81 0-10.4 1.54-2.07 6.64-1.6 8.98-1.6v17l-1 15v31h2l8-32 8 2-9 32 12-23s17-31 17-31l9 4c-2.58 7-17.69 29.4-22.66 37-2.7 4.15-9.02 12.42-9.34 17l24-24s3.8 6 3.8 6l-5.8 7.28-16 15.72 35-20.6 19-10.4 4 9-33 16.75-21 12.25s31-9 31-9 3 8 3 8l-28 7h1374v10h-952-292-89-27l-17 1 30 6-1 9-30-9c4.05 4.6 13.36 8.78 19 11.78l33 18.22-4 9-23-13.66-29-18.34 1.47 3.91 19.53 19.09-7 6c-3.99-5.28-15.67-19.1-21-22 0 0 20.4 34 20.4 34l10.6 19-9 4-16.75-32c-3.34-6.62-7.03-15.89-12.25-21l8 30-8 2c-0.55-6.5-4.09-25.41-8-30v29l1 15v17h-10l1-17 1-44c-4.67 4.91-7.57 20.91-9 28l-6.89-1.6 1.22-8.4 6.67-20c-5.69 4.55-8.39 11.75-11.86 18l-19.14 35-9-6s20.42-32 20.42-32l11.58-20-15 15-7 4.84-6-2.84 23-22c-4.84 0.31-10.79 4.87-15 7.4l-23 13.92c-5.34 3.35-10.75 7.41-17 8.68l-4-8 54-29-20 5.67-8.58 1.22-3.42-6.89 31-7-23-1h-39v-9h36c7.1 0 12.29 0.79 19-2l-16-3.13-6-2.59v-7.28s31 9 31 9l-21-12.31-34-18.69 4-8c6.68 1.35 13.22 6.43 19 10.05l36 21.95-18.81-20c-1.9-2.42-3.15-6.49 0.92-7.66 2.92-0.84 5.9 2.77 7.61 4.66 5.24 5.83 9.87 12.4 16.28 17 0 0-21.42-35-21.42-35-3.7-5.97-9.19-13.17-10.58-20l8-4 18.76 35c2.78 5.48 7.94 16.21 12.24 20l-9-31 8-3 6 32h2v-17z"/>
</svg>
