<?xml version="1.0" encoding="UTF-8"?>
<!DOCTYPE svg  PUBLIC '-//W3C//DTD SVG 20010904//EN'  'http://www.w3.org/TR/2001/REC-SVG-20010904/DTD/svg10.dtd'>
<svg width="2.7778in" height="2.7778in" viewBox="0 0 200 200" xmlns="http://www.w3.org/2000/svg">
<path d="m127 4c42.99 12.33 72.11 50.26 72.98 95 0.1 4.84-0.35 5.63-0.82 10-3.43 32.13-17.89 56.96-45.16 75-11.95 7.9-25.79 12.9-40 14.72-15.26 1.95-28.13 1.11-43-3.15-10.75-3.08-19.89-7.88-29-14.29-39.13-27.53-52.49-80.08-32.69-123.28 6.03-13.17 14.92-24.21 25.69-33.83 11.99-10.7 28.27-18.51 44-21.72l15-2.03c9.13-1.11 24.11 1.03 33 3.58zm-40 3.29c-19.27 2.5-39.06 12.28-52.96 25.8-36.52 35.52-36.14 96.7-0.95 132.87 17.29 17.78 42.32 27.47 66.91 27.47 24.49 0 49.7-9.78 66.91-27.47 35.22-36.2 35.59-97.32-0.95-132.87-13.85-13.47-33.75-23.3-52.96-25.8 0 0-13-0.72-13-0.72s-13 0.72-13 0.72zm38 17.71v50h50v50h-50v50h-50v-50h-50v-50h50v-50h50z" fill="none" stroke="#000"/>
</svg>
