<?xml version="1.0" encoding="UTF-8" standalone="no"?>
<!DOCTYPE svg PUBLIC "-//W3C//DTD SVG 20010904//EN"
              "http://www.w3.org/TR/2001/REC-SVG-20010904/DTD/svg10.dtd">

<svg xmlns="http://www.w3.org/2000/svg"
     width="3.55556in" height="3.55556in"
     viewBox="0 0 256 256">
  <path id="Selection"
        fill="none" stroke="black" stroke-width="1"
        d="M 123.00,57.61
           C 150.50,62.48 167.34,78.90 178.00,104.00
             178.00,104.00 136.00,115.00 136.00,115.00
             132.73,108.91 127.45,103.74 121.00,101.09
             117.72,99.75 110.37,98.99 108.93,97.40
             107.52,95.85 105.98,88.44 105.29,86.00
             105.29,86.00 98.00,57.00 98.00,57.00
             106.37,57.00 114.68,56.14 123.00,57.61 Z
           M 39.00,127.00
           C 39.03,106.63 47.84,87.71 63.00,74.17
             67.62,70.05 73.40,66.27 79.00,63.61
             80.97,62.67 84.16,61.07 86.10,62.84
             87.46,64.09 88.61,69.99 89.15,72.00
             89.15,72.00 94.87,93.00 94.87,93.00
             95.51,95.55 96.77,99.22 95.65,101.72
             94.76,103.71 89.23,108.68 87.33,111.00
             83.21,116.01 80.49,123.48 81.00,130.00
             81.00,130.00 40.00,141.00 40.00,141.00
             40.00,141.00 39.00,127.00 39.00,127.00 Z
           M 181.13,138.00
           C 178.17,159.07 166.41,178.02 148.00,188.98
             143.45,191.69 139.24,194.02 134.00,195.00
             134.00,195.00 127.42,169.00 127.42,169.00
             126.71,166.44 124.42,158.31 124.73,156.09
             125.29,152.13 129.24,151.35 133.47,145.99
             138.12,140.10 139.84,133.36 140.00,126.00
             140.00,126.00 180.00,115.00 180.00,115.00
             182.99,121.99 182.16,130.65 181.13,138.00 Z
           M 84.00,141.00
           C 88.28,147.33 91.79,151.85 99.00,155.10
             104.55,157.59 109.79,157.13 112.10,159.72
             113.54,161.35 115.01,168.52 115.71,171.00
             115.71,171.00 123.00,198.77 123.00,198.77
             116.07,199.00 104.43,199.67 98.00,198.77
             72.40,194.01 51.58,176.56 43.00,152.00
             43.00,152.00 84.00,141.00 84.00,141.00 Z" />
</svg>
