<?xml version="1.0" encoding="UTF-8"?>
<!DOCTYPE svg  PUBLIC '-//W3C//DTD SVG 20010904//EN'  'http://www.w3.org/TR/2001/REC-SVG-20010904/DTD/svg10.dtd'>
<svg viewBox="0 0 256 256" xmlns="http://www.w3.org/2000/svg">
<path d="m123 57.61c27.5 4.87 44.34 21.29 55 46.39l-42 11c-3.27-6.09-8.55-11.26-15-13.91-3.28-1.34-10.63-2.1-12.07-3.69-1.41-1.55-2.95-8.96-3.64-11.4l-7.29-29c8.37 0 16.68-0.86 25 0.61zm-84 69.39c0.03-20.37 8.84-39.29 24-52.83 4.62-4.12 10.4-7.9 16-10.56 1.97-0.94 5.16-2.54 7.1-0.77 1.36 1.25 2.51 7.15 3.05 9.16l5.72 21c0.64 2.55 1.9 6.22 0.78 8.72-0.89 1.99-6.42 6.96-8.32 9.28-4.12 5.01-6.84 12.48-6.33 19l-41 11-1-14zm142.13 11c-2.96 21.07-14.72 40.02-33.13 50.98-4.55 2.71-8.76 5.04-14 6.02l-6.58-26c-0.71-2.56-3-10.69-2.69-12.91 0.56-3.96 4.51-4.74 8.74-10.1 4.65-5.89 6.37-12.63 6.53-19.99l40-11c2.99 6.99 2.16 15.65 1.13 23zm-97.13 3c4.28 6.33 7.79 10.85 15 14.1 5.55 2.49 10.79 2.03 13.1 4.62 1.44 1.63 2.91 8.8 3.61 11.28l7.29 27.77c-6.93 0.23-18.57 0.9-25 0-25.6-4.76-46.42-22.21-55-46.77l41-11z" fill="#000" stroke="#000"/>
</svg>
