<?xml version="1.0" encoding="UTF-8"?>
<!DOCTYPE svg  PUBLIC '-//W3C//DTD SVG 20010904//EN'  'http://www.w3.org/TR/2001/REC-SVG-20010904/DTD/svg10.dtd'>
<svg viewBox="0 0 338 107" xmlns="http://www.w3.org/2000/svg">
<path d="m10.29 11.06c4.05-2.27 13.02 3.18 15.95 5.98 2.33 2.22 4.32 5.27 6.09 7.96l24.05 52c4.6 7.03 11.38 14.57 20.62 12.73 7.43-1.49 13.24-9.47 16.61-15.73 0 0 20.43-46 20.43-46 4.29-7.98 9.05-13.87 17.96-16.54 2.54-0.76 4.29-1.42 7-1.04 9.58 1.32 16.5 8.68 21.14 16.58 0 0 18.41 42 18.41 42 3.39 7.21 10.2 18.72 18.45 20.61 12.38 2.83 19.74-9.17 24.5-18.61 7.44-14.76 12.52-33.78 21.55-47 4.55-6.67 11.38-13.18 19.95-13.7 13.41-0.81 22.16 13.29 27.08 23.7 5.95 12.59 15.42 41.14 24.1 49.82 6.7 6.7 9.26 4.72 15.82 8.18v2c-10.76 5.36-20.63-7.04-25.63-15l-22.75-50c-4.23-6.46-10.27-13.38-18.62-12.94-8.76 0.46-14.04 8.04-18.12 14.94l-21.47 48c-4.5 7.76-14.5 17.95-24.41 16.58-9.53-1.31-15.76-7.86-20.63-15.58 0 0-18.92-43-18.92-43-3.39-7.21-10.2-18.72-18.45-20.61-12.53-2.87-20.49 9.93-25.08 19.61-6.62 13.97-12.17 32.58-20.3 45-4.67 7.14-11.69 13.84-20.62 14.59-12.7 1.06-21.23-11.87-26.22-21.59-6.86-13.36-15.55-42.4-24.96-51.82-6.7-6.7-9.26-4.72-15.82-8.18 0.71-1.25 0.84-2.12 2.29-2.94z"/>
</svg>
